<?xml version="1.0" standalone="no"?>
<!DOCTYPE svg PUBLIC "-//W3C//DTD SVG 20010904//EN"
 "http://www.w3.org/TR/2001/REC-SVG-20010904/DTD/svg10.dtd">
<svg version="1.0" xmlns="http://www.w3.org/2000/svg"
 width="1280.000000pt" height="853.000000pt" viewBox="0 0 1280.000000 853.000000"
 preserveAspectRatio="xMidYMid meet">
<metadata>
Created by potrace 1.16, written by Peter Selinger 2001-2019
</metadata>
<g transform="translate(0.000000,853.000000) scale(0.100000,-0.100000)"
fill="#000000" stroke="none">
<path d="M7550 7233 c-320 -54 -546 -226 -651 -496 -60 -158 -96 -399 -84
-571 9 -136 40 -385 66 -531 11 -66 27 -177 34 -246 17 -155 35 -269 81 -509
69 -363 86 -447 116 -568 17 -68 27 -126 23 -130 -4 -4 -136 -9 -295 -10
l-288 -4 -36 -58 c-20 -32 -36 -61 -36 -64 0 -3 159 -6 353 -6 l353 0 33 -102
c50 -151 93 -248 147 -330 45 -67 192 -223 324 -343 59 -53 170 -205 214 -292
36 -71 52 -149 71 -338 29 -280 61 -414 140 -581 58 -124 109 -196 197 -280
90 -85 165 -132 288 -179 123 -47 212 -59 383 -51 127 6 148 10 270 50 224 74
367 157 488 284 239 250 404 567 476 911 35 172 37 442 4 628 -84 472 -278
854 -606 1192 -102 105 -256 237 -310 266 -28 14 -31 14 -46 -5 -10 -11 -23
-58 -30 -106 l-13 -86 136 -129 c199 -189 330 -357 443 -571 99 -188 169 -393
200 -583 21 -124 20 -417 -1 -526 -82 -433 -378 -851 -708 -999 -69 -30 -182
-64 -256 -76 -77 -12 -254 -6 -326 11 -210 48 -367 194 -444 410 -96 275 -117
421 -80 565 26 105 105 271 155 328 20 23 85 75 143 115 196 133 279 230 382
444 157 325 218 534 314 1068 91 501 162 1012 186 1340 6 77 16 186 22 242 19
167 -19 398 -88 535 -102 203 -228 292 -470 333 -102 18 -204 16 -228 -4 -10
-8 -20 -6 -39 9 -106 84 -257 57 -324 -57 -23 -39 -28 -60 -28 -113 0 -86 31
-142 99 -185 42 -25 59 -30 115 -30 107 0 181 55 213 157 9 29 13 35 22 24 6
-7 62 -20 126 -29 135 -20 200 -48 258 -111 52 -57 88 -128 113 -224 34 -134
24 -405 -36 -940 -48 -429 -65 -537 -176 -1117 -81 -417 -225 -776 -399 -993
-76 -95 -205 -173 -315 -193 -89 -15 -167 -6 -264 31 -185 72 -360 231 -450
409 -33 64 -81 190 -81 210 0 8 175 11 654 11 l655 0 20 55 c12 31 21 60 21
65 0 6 -256 10 -694 10 -587 0 -695 2 -705 14 -15 18 -124 450 -145 576 -19
112 -148 1001 -176 1210 -24 178 -27 428 -5 527 34 161 87 267 181 359 76 76
177 128 289 150 44 9 84 20 88 24 5 4 13 27 18 51 5 24 24 63 40 87 17 24 29
49 26 56 -8 20 -63 23 -147 9z"/>
<path d="M7763 7216 c-140 -66 -170 -245 -59 -351 91 -88 228 -84 314 9 46 50
57 87 50 175 -10 146 -169 232 -305 167z"/>
<path d="M4714 5756 c-8 -14 -36 -132 -60 -263 -25 -131 -69 -368 -99 -528
-117 -622 -134 -708 -149 -729 -13 -21 -24 -23 -152 -29 -75 -4 -234 -7 -353
-8 -119 0 -287 -4 -374 -8 -202 -9 -192 -1 -251 -215 -24 -86 -46 -159 -49
-163 -7 -7 -11 8 -37 157 -47 265 -63 358 -106 614 -25 151 -51 280 -59 293
-20 29 -57 39 -95 23 -35 -15 -55 -54 -130 -255 -147 -397 -170 -453 -193
-460 -15 -4 -693 -14 -1009 -15 l-228 0 0 -70 0 -70 553 1 c643 1 776 6 806
33 11 10 52 100 91 200 93 238 110 274 120 256 4 -8 47 -251 94 -540 48 -289
93 -540 101 -558 25 -55 85 -62 128 -15 17 20 50 126 127 411 48 181 66 228
88 238 14 6 601 21 924 23 81 1 90 3 118 29 29 26 32 38 86 327 31 165 71 377
89 470 l32 170 6 -85 c4 -47 14 -222 22 -390 8 -168 19 -399 25 -515 6 -115
17 -356 25 -535 8 -179 22 -460 30 -625 8 -165 17 -367 20 -450 8 -202 24
-456 31 -478 3 -9 18 -24 34 -32 35 -18 71 -7 95 28 14 23 48 211 125 692 71
447 213 1291 221 1312 5 13 20 28 34 33 15 6 164 10 353 10 l327 0 43 65 42
65 -438 0 c-487 0 -472 2 -492 -68 -10 -35 -55 -308 -170 -1032 -29 -179 -55
-332 -58 -340 -7 -18 -21 231 -57 990 -8 179 -19 408 -25 510 -6 102 -12 232
-15 290 -44 857 -67 1216 -81 1237 -21 33 -87 32 -110 -1z"/>
<path d="M7881 5264 c-181 -23 -463 -99 -575 -156 l-59 -30 6 -63 c7 -75 30
-135 51 -135 9 0 82 27 163 59 454 182 911 171 1378 -33 58 -25 84 -32 97 -25
20 11 36 60 45 141 l6 58 -74 34 c-157 72 -393 135 -581 155 -127 14 -327 12
-457 -5z"/>
<path d="M6800 4813 c-105 -84 -335 -312 -419 -416 -284 -352 -443 -740 -458
-1119 -7 -175 -9 -173 106 -165 46 4 89 11 94 16 6 6 11 52 13 104 6 221 73
467 185 676 120 225 256 399 480 614 136 131 159 158 159 183 -1 34 -24 146
-34 162 -14 24 -43 11 -126 -55z"/>
<path d="M9105 4158 c-21 -57 -35 -102 -35 -109 0 -5 140 -9 311 -9 263 0 310
2 306 14 -3 8 -22 37 -42 65 l-37 51 -249 0 c-191 0 -251 -3 -254 -12z"/>
<path d="M10063 4162 l-33 -7 33 -55 33 -55 160 1 c87 0 306 1 487 2 l327 2 0
55 0 55 -272 0 c-150 0 -370 2 -488 4 -118 3 -230 2 -247 -2z"/>
<path d="M5965 3001 c-148 -43 -268 -142 -330 -273 -214 -450 267 -904 716
-678 299 151 367 565 134 810 -129 134 -343 193 -520 141z"/>
</g>
</svg>
